<?xml version="1.0" encoding="UTF-8"?>
<svg width="26px" height="26px" viewBox="0 0 26 26" version="1.1" xmlns="http://www.w3.org/2000/svg" xmlns:xlink="http://www.w3.org/1999/xlink">
    <defs></defs>
    <g id="tranformer-NEW" stroke="none" stroke-width="1" fill-rule="evenodd">
        <g id="elements" transform="translate(-273.000000, -838.000000)" fill-rule="nonzero">
            <g id="close" transform="translate(273.000000, 838.000000)">
                <path d="M0.658175559,25.1418244 C0.830292599,25.3139415 1.0454389,25.4 1.28209983,25.4 C1.51876076,25.4 1.73390706,25.3139415 1.9060241,25.1418244 L12.9,14.1478485 L23.8939759,25.1418244 C24.0660929,25.3139415 24.2812392,25.4 24.5179002,25.4 C24.7330465,25.4 24.9697074,25.3139415 25.1418244,25.1418244 C25.4860585,24.7975904 25.4860585,24.23821 25.1418244,23.8939759 L14.1478485,12.9 L25.1418244,1.9060241 C25.4860585,1.56179002 25.4860585,1.00240964 25.1418244,0.658175559 C24.7975904,0.31394148 24.23821,0.31394148 23.8939759,0.658175559 L12.9,11.6521515 L1.9060241,0.658175559 C1.56179002,0.31394148 1.00240964,0.31394148 0.658175559,0.658175559 C0.31394148,1.00240964 0.31394148,1.56179002 0.658175559,1.9060241 L11.6521515,12.9 L0.658175559,23.8939759 C0.31394148,24.23821 0.31394148,24.7975904 0.658175559,25.1418244 Z" id="Shape"></path>
            </g>
        </g>
    </g>
</svg>
