<svg xmlns="http://www.w3.org/2000/svg" width="40" height="37" viewBox="0 0 40 37">
    <path fill="#E56B2E" fill-rule="nonzero" d="M2.598 21.075a9.112 9.112 0 0 0 5.382 2.6c2.304 3.545 6.193 5.987 10.483 6.42v3.85h-6.692c-.841 0-1.54.682-1.54 1.527 0 .835.701 1.528 1.54 1.528h16.458c.853 0 1.551-.693 1.551-1.528 0-.845-.698-1.528-1.551-1.528h-6.695v-3.848c4.314-.434 8.182-2.873 10.483-6.42a9.106 9.106 0 0 0 5.297-2.515l.088-.086C39.018 19.448 40 17.246 40 14.831V6.406c0-.845-.698-1.528-1.527-1.528H34.3V1.54C34.3.683 33.61 0 32.76 0H7.24c-.851 0-1.53.683-1.53 1.54v3.338H1.54C.687 4.878 0 5.561 0 6.406v8.425c0 2.415.994 4.617 2.588 6.244h.01zm31.704-4.835V7.922h2.622v6.906a5.748 5.748 0 0 1-1.704 4.077l-.065.087c-.416.401-.917.76-1.44 1.04.367-1.246.542-2.504.587-3.792zM8.791 3.037h22.43v13.118l-.012.097a10.78 10.78 0 0 1-1.266 4.9l-.034.054c-1.921 3.587-5.765 5.931-9.916 5.931-4.152 0-7.995-2.341-9.917-5.931l-.019-.057a10.917 10.917 0 0 1-1.264-4.997V3.037h-.002zM3.066 7.924H5.71v8.316c.021 1.29.217 2.548.578 3.794a5.791 5.791 0 0 1-1.505-1.106v-.021a5.763 5.763 0 0 1-1.717-4.076V7.924z"/>
</svg>
