<svg xmlns="http://www.w3.org/2000/svg" width="189" height="164" viewBox="0 0 189 164">
    <g fill="none" fill-rule="evenodd">
        <path fill="#F5F4F4" d="M-606-53H794v7163H-606z"/>
        <g fill-rule="nonzero">
            <g fill="#8D8D8D">
                <path d="M75.009.058c2.11-.021 4.22.058 6.33-.033 1.045.015 2.092.01 3.14.017-.227.334-.605.505-.922.738-6.32 4.519-12.641 9.037-18.956 13.565-.228.166-.46.326-.698.478.417-1.167.963-2.284 1.442-3.427 1.575-3.69 3.16-7.377 4.74-11.064.073-.296.37-.274.62-.27 1.434-.005 2.87.048 4.304-.004zM121.19 4.826c.222-.33.449-.66.745-.929-.245.891-.656 1.728-.969 2.597-4.23 10.898-8.47 21.794-12.736 32.68a28.018 28.018 0 0 0-.608 1.627c.624.407 1.33.658 1.988 1.005 1.125.584 2.268 1.134 3.383 1.737 1.852.812 3.588 1.854 5.427 2.694.874.43 1.739.88 2.61 1.316.703.34 1.355.81 2.135.975l.078.189c-1.747.176-3.487.41-5.23.609-1.804.148-3.591.442-5.391.631-2.225.273-4.453.514-6.674.805-1.436.21-2.887.3-4.32.535-1.133.076-2.252.323-3.388.331-.142-1.798-.402-3.585-.622-5.376-.58-4.612-1.15-9.227-1.706-13.842-.205-1.568-.423-3.136-.584-4.708.993-.077 1.976-.261 2.974-.265 1.233-.134 2.466-.265 3.702-.376 1.041-.175 2.121-.137 3.135-.463.348-.286.566-.695.842-1.045 5.06-6.916 10.144-13.814 15.21-20.727zM75.153 12.603c.24-.16.48-.32.716-.488.138 2.175.509 4.328.725 6.495 0 .206.15.538-.13.627-.953.43-1.956.748-2.923 1.148-9.553 3.751-19.119 7.474-28.665 11.238.43-.42.981-.675 1.492-.982 9.592-6.018 19.186-12.031 28.785-18.038z"/>
                <path d="M81.198 15.78c1.018.302 2.03.63 3.01 1.04 2.25.709 4.469 1.512 6.704 2.263 2.992 1.031 5.988 2.05 8.982 3.075.814.266 1.608.588 2.44.8.16.03.297.125.413.242-1.76.013-3.521.012-5.282.025-.958-.015-1.911.093-2.869.074-1.595-.01-3.19.04-4.782 0 .047 1.26.323 2.5.455 3.755 1.08 8.136 2.18 16.27 3.266 24.404.097.586.19 1.174.201 1.77-1.02.068-2.032.237-3.035.426-2.5.326-4.985.752-7.482 1.097-1.9.261-3.796.546-5.688.858a9.88 9.88 0 0 0-.106-4.12c-.23-.973-.433-1.98-.967-2.842-1.328-2.21-3.51-3.979-6.06-4.56-.82-.197-1.67-.447-2.517-.271-.55.121-1.1.243-1.644.387-.577.148-1.05.522-1.523.865-.42.305-.688.758-.982 1.175-.495.676-.533 1.541-.756 2.322-1.282.622-2.655 1.02-3.997 1.483-2.082.574-4.16 1.172-6.283 1.578-1.657.372-3.33.658-4.996.982-.131.014-.305.094-.374-.065-.288-.415-.463-.89-.683-1.34-.177-.386-.42-.745-.51-1.164 4.831-1.392 9.633-2.894 14.456-4.323 2.604-.767 5.185-1.607 7.797-2.345 2.426-.776 4.885-1.44 7.313-2.21 1.43-.373 2.824-.867 4.248-1.265 1.026-.353 2.083-.606 3.106-.966-.492-6.147-1.019-12.291-1.464-18.442-.195-1.563-.249-3.14-.39-4.707zM146.56 22.082c1.107-.133 2.23.01 3.336-.146.416-.05.838-.044 1.258-.002-.346.344-.857.404-1.29.586-6.646 2.532-13.306 5.035-19.952 7.57-.734 3.33-1.524 6.646-2.27 9.973-.271 1.21-.607 2.41-.768 3.641l-.207.066c-.012-.908-.216-1.797-.313-2.696-.665-4.76-1.322-9.521-1.975-14.283-.15-1.287-.42-2.559-.5-3.851 1.15.045 2.291-.158 3.444-.11 1.151-.133 2.311-.09 3.468-.136 1.109-.152 2.23-.047 3.344-.136 1.069-.143 2.152-.018 3.224-.138 1.031-.107 2.07-.017 3.104-.113 1.045-.093 2.098-.008 3.144-.097.979-.139 1.971-.019 2.953-.128z"/>
                <path d="M166.03 26.429c2.434-.68 4.921-1.16 7.353-1.848.01 1.062-.016 2.125-.006 3.187.088 1.225-.004 2.452.013 3.68-.022 3.203-.001 6.41-.115 9.614.164 2.346.048 4.703.058 7.056-1.407-.17-2.783-.532-4.177-.782-2.486-.451-4.947-1.02-7.438-1.443-4.38-.914-8.78-1.745-13.166-2.638-.669-.101-1.322-.296-1.996-.348-.344.228-.537.612-.794.924-2.813 3.735-5.638 7.46-8.435 11.204-.716-.475-1.484-.896-2.334-1.075-.955-.204-1.902-.528-2.891-.486-1.061-.033-2.086.275-3.107.508-.767.171-1.506.44-2.24.717 2.264-6.826 4.57-13.638 6.856-20.456 3.075-.845 6.203-1.475 9.29-2.271 6.123-1.459 12.237-2.96 18.36-4.418 1.59-.374 3.163-.82 4.769-1.125zM50.422 35.027c8.373-3.41 16.713-6.894 25.077-10.326.426 3.197.843 6.395 1.279 9.592.024.362.168.752.06 1.108-12.993 3.939-25.984 7.892-38.979 11.824-.192.04-.495.202-.304.425 1.009 1.835 2.075 3.64 3.107 5.464.077.15.141.308.208.47-1.15.129-2.292.326-3.443.442-.853.119-1.69.333-2.544.426-.921.102-1.82.331-2.74.442-2.745-2.323-5.466-4.673-8.219-6.987-.488-.459-1.067-.824-1.488-1.346 4.65-1.86 9.26-3.823 13.894-5.724 4.7-1.93 9.404-3.85 14.092-5.81zM115.612 33.936c.81-1.019 1.528-2.11 2.375-3.098.813 2.299 1.592 4.61 2.394 6.914.287.904.676 1.78.877 2.71-2.826-.944-5.698-1.753-8.515-2.72.938-1.282 1.917-2.534 2.869-3.806zM181.522 78.999c1.009.313 1.956.795 2.944 1.172 1.171.499 2.378.921 3.53 1.468-1.432 2.5-2.828 5.018-4.245 7.525-.28.469-.464 1.003-.85 1.403-.345-2.818-.658-5.64-1.049-8.45-.046-1.047-.313-2.071-.33-3.118zM4.82 84.86c.612.046 1.18.295 1.773.432 1.455.335 2.87.815 4.32 1.178.95.21 1.649.934 2.536 1.293l-.018.124c-4.04 2.5-8.063 5.03-12.094 7.546-.398.252-.792.513-1.221.71.26-.85.688-1.635 1.008-2.461C2.33 90.73 3.627 87.816 4.82 84.86zM159.771 90.153c1.405-.425 2.813-.849 4.257-1.122-.64 1.004-1.462 1.879-2.166 2.836-2.555 3.236-5.11 6.475-7.654 9.717.049-.471.3-.88.48-1.305 1.076-2.636 2.183-5.259 3.279-7.886.267-.606.462-1.25.797-1.824.264-.259.67-.293 1.007-.416zM169.618 89.024c.478.145 1.099.115 1.393.595.482.728 1.218 1.25 1.67 2.001-.13.277-.38.468-.586.686-6.199 6.42-12.401 12.836-18.604 19.252-.728.737-1.397 1.534-2.168 2.229.32-.604.803-1.096 1.198-1.646 5.597-7.575 11.193-15.15 16.784-22.73.1-.133.206-.261.313-.387zM146.473 107.678a26.752 26.752 0 0 0 3.533-2.76c-.513 1.398-.883 2.843-1.31 4.267a374.762 374.762 0 0 0-1.69 5.54c-.1.385-.3.776-.19 1.182 1.632 7.928 3.23 15.863 4.844 23.796.141.704.333 1.401.395 2.121-.382-.419-.545-.97-.836-1.444-3.498-6.457-6.99-12.917-10.488-19.374-.175-.346-.402-.675-.487-1.053-.018-.506.172-.987.277-1.473.721-3.118 1.399-6.244 2.155-9.354 1.315-.333 2.624-.754 3.797-1.448z"/>
                <path d="M132.896 109.013c.303-.26.594-.576.985-.7.742.344 1.489.7 2.302.856 1.088.248 2.179.588 3.312.519-.742 3.492-1.59 6.962-2.348 10.45-.1.434.261.784.435 1.15 1.581 3.052 3.203 6.085 4.778 9.138.348.665.727 1.315 1.031 2.002-1.816 1.507-3.71 2.92-5.536 4.418-3.323 2.632-6.647 5.263-9.968 7.896-.917.753-1.882 1.447-2.763 2.24-.152.141-.345.22-.536.294.304-.513.78-.885 1.156-1.34 3.644-4.174 7.262-8.37 10.899-12.551.165-.214.435-.413.398-.712-.072-.722-.26-1.427-.387-2.139-.233-1.037-.29-2.104-.565-3.131-1.135-5.864-2.189-11.74-3.313-17.605-.027-.265-.149-.604.12-.785zM122.358 109.475c1.26-.2 2.503-.52 3.775-.636-3.831 2.554-7.673 5.095-11.506 7.645-.34-.947-.52-1.942-.796-2.906-.173-.824-.474-1.618-.593-2.452 3.043-.538 6.079-1.107 9.12-1.65zM120.057 116.427c3.257-2.054 6.503-4.13 9.763-6.178-1.884 8.19-3.828 16.37-5.732 24.557-.53 2.161-.98 4.344-1.551 6.494-1.3-.203-2.61-.349-3.908-.56-3.194-.333-6.36-.883-9.55-1.252-2.642-.395-5.302-.672-7.942-1.075-.196-.01-.423-.101-.587.041-1.504 5.105-3.065 10.196-4.546 15.307l-.185.178c-.25-2.715-.646-5.413-.942-8.123-.378-3.245-.761-6.49-1.162-9.734-.132-1.47-.383-2.929-.477-4.4 5.865.502 11.733 1.003 17.596 1.532.919.075 1.84.104 2.757.212.652.04 1.298.168 1.956.125-.189-4.003-.556-7.997-.725-12.001-.03-.576-.195-1.16-.076-1.732 1.742-1.168 3.542-2.258 5.311-3.391z"/>
                <path d="M101.565 113.256c1.945-.37 3.898-.699 5.843-1.064.284 1.045.391 2.126.626 3.184.572 3.116 1.141 6.232 1.724 9.346.275 1.594.626 3.177.848 4.78-.935-.102-1.862-.285-2.801-.345-1.085-.087-2.145-.337-3.225-.453-8.607-1.133-17.213-2.283-25.818-3.416-1.6-.268-3.22-.405-4.826-.627-1.127-.091-2.228-.356-3.352-.459-5.02-.656-10.038-1.333-15.058-1.988.28-.494.842-.789 1.395-.863 3.31-.576 6.606-1.223 9.918-1.777 8.234-1.534 16.483-3.001 24.724-4.502.48-.077.994-.28 1.473-.079 2.302 1.021 4.566 2.125 6.868 3.146.43.206.852.451 1.332.53.006-.991-.02-1.982.03-2.97.107-.669.09-1.346.1-2.02.017-.149-.01-.412.2-.423zM131.36 119.588l.22-.07c.096 2.889.526 5.76.737 8.642.172 1.424.258 2.856.426 4.281.066.277-.15.484-.312.68-1.724 1.965-3.46 3.922-5.176 5.896-.52.528-.95 1.14-1.509 1.629.208-1.27.681-2.475.965-3.727 1.412-5.17 2.801-10.344 4.217-15.51.163-.603.333-1.205.432-1.82zM39.543 124.507c2.397-.418 4.787-.88 7.187-1.289-.683.897-1.44 1.736-2.155 2.607.496.221 1.054.232 1.582.342 1.083.14 2.165.292 3.24.499 1.578.199 3.143.492 4.712.75 5.732.859 11.453 1.79 17.18 2.673 1.011.141 2.012.365 3.034.41l.066.225c-1.782-.016-3.544.275-5.315.418-2.643.196-5.28.463-7.923.687-3.32.314-6.652.5-9.967.873-1.976.145-3.949.305-5.92.494-1.04.042-2.062.256-3.101.286-1.82.148-3.643.256-5.45.515-2.217.158-4.428.39-6.645.544.275-.499.721-.867 1.093-1.288 2.537-2.78 5.094-5.542 7.623-8.328.192-.23.456-.39.76-.418zM84.174 131.465c.848-.037 1.687.167 2.54.1 1.239.16 2.492.065 3.727.26-.283 2.229-.629 4.454-.995 6.673a761.985 761.985 0 0 1-4.202-5.552c-.359-.494-.817-.921-1.07-1.481zM77.877 132.985c1.14-.117 2.263-.424 3.416-.398.41.753 1.016 1.373 1.51 2.07 2.093 2.778 4.231 5.524 6.313 8.309-3.11-.008-6.22-.026-9.33-.032-.918.008-1.83-.099-2.747-.087-.958-.054-1.907.136-2.865.074-1.12.043-2.229-.126-3.346-.093-2.547-.004-5.095-.017-7.643-.025-.796.012-1.592-.155-2.384-.011-1.475.055-2.952-.006-4.428.011 1.05 2.406 2.33 4.708 3.462 7.078a132.65 132.65 0 0 1 2.256 4.538c.201.383.488.725.607 1.15-.355-.184-.615-.488-.88-.773-4.815-4.473-9.596-8.98-14.424-13.44-.957-.95-1.962-1.848-2.945-2.769-.354-.304-.717-.6-.986-.982 1.407-.09 2.79-.4 4.192-.536 1.217-.14 2.429-.32 3.64-.503 6.01-.749 12.002-1.654 18.01-2.412 2.854-.41 5.713-.784 8.572-1.17zM52.184 159.829c1.287-1.921 2.513-3.884 3.829-5.784 1.09.885 2.069 1.895 3.121 2.824.731.658 1.456 1.321 2.195 1.971 1.458 1.443 3.014 2.782 4.51 4.186.325.31.7.579.957.956-1.464-.128-2.92-.34-4.387-.439-3.111-.434-6.24-.721-9.36-1.085-.77-.117-1.554-.151-2.31-.346.402-.808.974-1.515 1.445-2.283z"/>
            </g>
            <g fill="#FFF">
                <path d="M67.825 48.713a.883.883 0 0 1 .658-.598c.89-.196 1.806.071 2.599.486a5.694 5.694 0 0 1 2.181 1.958c.683 1.061.849 2.363.829 3.6.017 1.064-.388 2.099-.998 2.958-.74.963-1.828 1.559-2.897 2.082-2.611 1.213-5.44 1.878-8.264 2.362-1.185.29-2.407.36-3.608.56-1.978.332-3.978.483-5.97.699-1.141.176-2.291.272-3.438.383-1.503.114-2.987.384-4.482.538-.167.04-.203.229-.274.36-.98 2.298-1.933 4.61-2.73 6.981-1.53 4.29-2.789 8.67-4.143 13.016-.145.492-.317.978-.428 1.482.543-.306.975-.766 1.454-1.157 1.446-1.274 2.903-2.549 4.131-4.043.527-.671 1.189-1.28 1.459-2.113.534-1.33.878-2.822 1.926-3.863.49-.533 1.214-.703 1.87-.938 1.086-.336 2.205-.657 3.355-.625.78.049 1.594.176 2.255.625.28.362.034.808-.143 1.157-.34.526-.742 1.01-1.067 1.547-1.25 1.958-2.01 4.176-2.605 6.408-.565 2.245-1.002 4.527-1.232 6.833-.165 1.38-.318 2.772-.715 4.11-.116.343-.17.745-.447 1.006-.48.112-.783-.335-1.1-.603-1.236-1.127-2.04-2.651-2.502-4.24-.465-1.491-.663-3.049-.714-4.603-.473.266-.822.696-1.254 1.02-1.795 1.537-3.717 2.917-5.579 4.375-.286.252-.715.414-.821.815-2.362 7.28-4.496 14.662-7.625 21.663-.939 1.995-1.828 4.021-2.985 5.903-.886 1.445-1.774 2.915-2.98 4.12-.56.516-1.155 1.022-1.864 1.317-1.562.56-3.307.892-4.925.361-1.227-.406-2.222-1.356-2.786-2.505-.682-1.312-.858-2.805-.902-4.261-.105-4.497.862-9.003 2.703-13.103.882-1.938 1.986-3.78 3.339-5.43 1.058-1.34 2.335-2.486 3.635-3.585 1.379-1.114 2.836-2.142 4.418-2.945.593-.334 1.232-.577 1.836-.884.497-1.3.824-2.666 1.224-4 1.984-6.756 3.79-13.568 6.044-20.242.261-.811.588-1.601.81-2.425-1.444.36-2.87.782-4.3 1.192a21.77 21.77 0 0 0-5.41 2.383c-1.896 1.114-3.656 2.56-4.808 4.456-.637 1.03-1.142 2.153-1.404 3.34-.451 2.096-.251 4.257-.526 6.372-.049.529-.448 1.032-.984 1.121-.498.15-.999-.05-1.453-.242-1.034-.464-1.852-1.296-2.516-2.196-.717-.972-1.332-2.043-1.63-3.222-.632-2.28-.357-4.734.48-6.924a13.739 13.739 0 0 1 3.152-4.667c1.614-1.665 3.637-2.852 5.674-3.923 4.296-2.228 9.063-3.327 13.802-4.136.865-.222 1.76-.257 2.635-.427 1.547-.266 3.1-.492 4.661-.648 2.74-.397 5.487-.736 8.201-1.285 2.49-.49 4.983-.979 7.433-1.648 2.527-.646 5.053-1.355 7.438-2.427 1.214-.513 2.453-1.21 3.134-2.385-.172-.48-.637-.815-.827-1.296zm-45.601 53.034c-2.674 2.147-5.27 4.593-6.68 7.782-.756 1.802-1.283 3.773-1.076 5.74.039.515.37 1.207.996 1.06.936-.306 1.653-1.031 2.286-1.756 1.607-1.895 2.609-4.197 3.642-6.432.827-1.834 1.464-3.746 2.19-5.621.301-.891.72-1.744.939-2.661-.822.554-1.511 1.283-2.297 1.888zM175.833 52.02c1.552-.818 3.234-1.44 4.996-1.577 1.3-.088 2.724.05 3.79.868 1.057.8 1.29 2.287.981 3.51-.364 1.848-1.618 3.342-2.908 4.643-1.1 1.038-2.19 2.1-3.446 2.953-1.572 1.084-3.185 2.14-4.954 2.872-.661.243-1.325.51-2.028.599-.057.851-.055 1.758.325 2.543.308.637 1.014 1.015 1.716.966 2.203-.012 4.246-1.088 5.935-2.43 1.872-1.4 3.355-3.226 4.796-5.047.507-.643.992-1.303 1.461-1.972.267-.352.501-.782.945-.936.443-.157.997-.14 1.362.196.223.233.162.577.158.874-.124 1.478-.872 2.794-1.597 4.054a33.71 33.71 0 0 1-4.058 5.42c-1.396 1.409-2.8 2.833-4.444 3.958-1.853 1.276-3.83 2.477-6.058 2.946-2.284.542-4.9-.094-6.482-1.88-1.492-1.669-2.024-4.014-1.854-6.203.053-2.538.96-4.983 2.194-7.174 1.289-2.249 2.897-4.328 4.834-6.057 1.309-1.215 2.733-2.323 4.336-3.125zm3.194 2.36c-.78.633-1.545 1.3-2.187 2.077-.83.978-1.495 2.083-2.168 3.171-.24.408-.525.802-.635 1.271 2.13-.989 4.243-2.14 5.916-3.817.834-.829 1.72-1.66 2.236-2.736.147-.284.167-.625.09-.93-.11-.296-.496-.25-.745-.25-.947.103-1.78.63-2.507 1.213z"/>
                <path d="M155.194 54.61c1.258-.49 2.58-.912 3.944-.89.919-.009 1.863.158 2.664.627.818.512 1.283 1.46 1.35 2.407.116 1.687-.616 3.289-1.501 4.68.796.25 1.688.238 2.396.734.192.17.512.406.352.699-1.866 4.408-3.407 8.943-5.05 13.436-.46 1.426-1.114 2.785-1.538 4.22 2.351-.588 4.676-1.496 7.138-1.438 2.148.056 4.347.81 5.866 2.374.717.712 1.313 1.58 1.545 2.577.051.4.062.909-.27 1.195-.63.276-1.191-.273-1.757-.46-1.104-.481-2.326-.378-3.494-.329-3.895.268-7.64 1.466-11.32 2.692-.247.102-.591.111-.667.42-.968 2.293-1.953 4.58-3.002 6.837-1.051 2.05-2.087 4.133-3.517 5.951-1.368 1.835-3.127 3.466-5.285 4.306-2.006.76-4.34 1.17-6.364.248-1.384-.555-2.33-1.92-2.529-3.376-.248-1.042.007-2.096.165-3.128.362-2.012 1.408-3.814 2.559-5.474 1.304-1.758 2.961-3.218 4.663-4.58 2.182-1.61 4.53-2.987 6.97-4.168.29-.178.695-.235.895-.525.529-1.334.977-2.7 1.558-4.013.273-.65.646-1.257.853-1.933-.328.044-.481.352-.668.582-.7.91-1.48 1.758-2.314 2.547-.822.714-1.837 1.355-2.972 1.264-1.475.073-2.916-.726-3.732-1.938-.652-.886-.985-1.97-1.078-3.059-.39.409-.639.923-.985 1.365-1.421 1.907-2.995 3.74-4.937 5.135-.941.659-1.896 1.318-2.96 1.763-1.028.413-2.13.841-3.257.685-.933-.141-1.56-.954-1.954-1.745-.593-1.288-.56-2.745-.447-4.126-.22.111-.305.352-.415.557-.723 1.386-1.641 2.665-2.671 3.839-.677.706-1.297 1.527-2.205 1.947-1.292.622-2.948.459-4.04-.49-1.502-1.26-2.252-3.196-2.478-5.101-.363-3.242.036-6.589 1.262-9.62 1.833-4.228 4.901-7.885 8.68-10.513 1.086-.773 2.24-1.459 3.472-1.979 1.115-.517 2.286-.95 3.513-1.092 1.085-.093 2.216.085 3.168.634.788.464 1.31 1.323 1.393 2.231.132 1.488-.268 2.987-.945 4.306-.12.284-.365.531-.396.844.683.226 1.45.26 2.054.698.282.2.665.537.479.924-.389.834-1.07 1.484-1.523 2.279-.76 1.318-1.549 2.63-2.095 4.057-.432 1.134-.887 2.318-.8 3.555.015.321.271.623.597.666.743.12 1.413-.35 1.939-.819 2.014-1.87 3.511-4.198 5.035-6.464.276-.44.615-.852.786-1.347.752-2.267 1.827-4.432 3.225-6.372 1.07-1.471 2.35-2.784 3.73-3.969 2.05-1.804 4.368-3.326 6.915-4.333zm.167 4.562c-2.157 1.1-3.709 3.05-5.014 5.035-1.187 1.991-2.139 4.197-2.32 6.53-.043.908.03 1.99.799 2.602.622.325 1.372.146 1.966-.164.995-.546 1.69-1.491 2.338-2.397 1.172-1.84 1.89-3.919 2.862-5.863-.278-.21-.608-.393-.774-.707-.13-.269.06-.534.19-.757.66-1.01 1.557-1.833 2.31-2.769.476-.586.972-1.186 1.22-1.91.094-.251-.175-.446-.4-.427-1.11-.055-2.19.356-3.177.827zm-25.36 3.552c-1.77.542-3.21 1.804-4.363 3.211-1.06 1.294-1.891 2.758-2.599 4.268-.625 1.391-1.12 2.858-1.278 4.381-.118.879-.128 1.804.194 2.644.17.42.538.834 1.029.828.852.102 1.633-.381 2.217-.955 1.159-1.144 1.891-2.63 2.55-4.097.523-1.254 1.087-2.494 1.547-3.771-.35-.28-.964-.64-.708-1.172.93-1.728 2.503-3.012 3.425-4.747.082-.265.15-.702-.162-.836-.628-.097-1.259.05-1.853.246zm14.235 29.48c-2.152 1.193-4.345 2.37-6.211 3.992-.692.577-1.382 1.234-1.691 2.103-.143.343.007.789.375.917 1.108.476 2.43.378 3.514-.124 1.224-.537 2.169-1.536 3-2.556 1.269-1.647 2.172-3.538 3.068-5.403-.72.286-1.37.718-2.055 1.07zM102.578 63.135c2.767-1.751 6.237-2.676 9.464-1.793 1.308.333 2.273 1.451 2.723 2.686.705 1.725.575 3.672.056 5.428a12.802 12.802 0 0 1-2.218 4.177c-.483.581-1.063 1.098-1.746 1.432-.867.396-1.977.387-2.732-.243-1.016-.833-1.413-2.267-1.177-3.532.26-.525.902-.63 1.399-.83 1.42-.484 2.313-1.794 3.018-3.042.403-.69.684-1.528.457-2.322-.137-.48-.663-.824-1.155-.66-1.926.194-3.773 1.297-4.726 3.001-.77 1.4-1.194 3.01-1.11 4.612.072.951.338 1.907.886 2.698.891 1.302 1.972 2.46 2.882 3.749.9 1.226 1.652 2.648 1.658 4.206.105 1.755-.484 3.488-1.38 4.976-1.429 2.22-3.765 3.745-6.27 4.492-1.012.234-2.033.526-3.083.443-1.261-.099-2.477-.994-2.78-2.249-.23-.745-.058-1.546.273-2.23.301-.547.923-.794 1.506-.905.049.472-.032.974.158 1.426.19.361.623.285.965.256a2.767 2.767 0 0 0 1.037-.413c.82-.781.98-1.989.937-3.067.07-1.322-.668-2.493-1.416-3.518-.208-.275-.368-.596-.658-.792-1.04 2.708-2.516 5.232-4.238 7.561-1.54 2.1-3.286 4.098-5.478 5.538-.894.582-1.852 1.09-2.885 1.37-.787.283-1.678.308-2.46 0-.997-.38-1.758-1.24-2.146-2.216-.762-1.895-.594-4.03-.038-5.956.842-2.992 1.832-5.94 2.871-8.87 1.072-3.185 2.259-6.336 3.164-9.572-.644.47-1.182 1.073-1.816 1.56-.781.658-1.629 1.227-2.47 1.798-1.156 3.225-2.699 6.294-4.31 9.314-1.085 2.03-2.084 4.108-3.275 6.08-1.449 2.417-3.092 4.765-5.255 6.601-1.38 1.289-3.301 2.116-5.208 1.778-.883 1.084-1.826 2.124-2.885 3.039-.98.86-2.013 1.675-3.173 2.281-1.026.565-2.171.873-3.326 1.023-2.12.381-4.382-.69-5.468-2.538-1.07-1.825-1.407-3.979-1.412-6.067.026-2.33.358-4.655.916-6.916 1.119-4.45 2.906-8.886 6.1-12.264.355-.317.348-.832.547-1.236.685-1.568 1.998-2.746 3.306-3.8 1.694-1.178 3.621-2.238 5.737-2.276C68.236 67.31 69.963 68.478 71 70c.897 1.33 1.4 2.895 1.654 4.47.42 2.782.12 5.623-.527 8.346-.251 1.14-.662 2.237-.944 3.37.386-.104.63-.436.908-.694 1.612-1.558 2.894-3.42 4.016-5.349 1.392-2.18 2.341-4.597 3.276-6.996-1.04-.412-1.979-1.17-2.435-2.208-.353-.766-.346-1.633-.279-2.455.196-1.957.932-3.923 2.338-5.334a5.836 5.836 0 0 1 3.308-1.776c.67-.088 1.384-.238 2.035.033.8.375 1.158 1.282 1.277 2.107.214 1.169-.18 2.321-.317 3.475.544-.27 1.015-.66 1.518-.997.96-.672 1.928-1.336 2.953-1.907.428-.247.95-.163 1.41-.06 1.079.27 1.932 1.082 2.508 2.003.577.906.835 1.99.814 3.058.036 1.118-.213 2.218-.46 3.3-.392 1.729-1.017 3.39-1.565 5.072-.557 1.606-1.18 3.191-1.697 4.812-.483 1.531-1.152 3.048-1.156 4.682 1.015-.054 1.79-.795 2.424-1.515 2.133-2.401 3.617-5.273 5.35-7.956-.92-2.029-1.014-4.364-.478-6.51.788-3.21 2.889-6.032 5.647-7.835zm-40.561 8.961c-.161.565-.323 1.136-.387 1.725-.133.823-.008 1.655.044 2.48.217 2.069.741 4.098 1.484 6.039.548 1.395 1.246 2.77 2.33 3.828.3.27.571.645 1 .696.577-2.088 1.134-4.197 1.255-6.37.075-2.034.034-4.164-.819-6.051-.5-1.015-1.243-2.016-2.337-2.427-.83-.3-1.748-.183-2.57.08zm-4.413 10.385c-1.17 2.883-1.967 5.978-1.854 9.11.027 1.032.141 2.09.562 3.045.277.629.881 1.199 1.61 1.162 1.747-.007 3.227-1.103 4.501-2.183-1.229-1.541-2.067-3.344-2.77-5.171-.716-1.956-1.26-3.967-1.87-5.956a9.152 9.152 0 0 1-.18-.007z"/>
            </g>
            <g fill="#E56B2E">
                <path d="M127.784 98.077c1.08-.283 2.234.725 2.181 1.826-.047.89-.843 1.713-1.753 1.677-.966.085-1.87-.82-1.784-1.788-.04-.81.612-1.5 1.356-1.715zM119.531 98.524c.724-.073 1.44-.21 2.166-.294.017 1.65-.132 3.3-.178 4.952 1.125-.146 2.233-.405 3.36-.55-.01.564-.037 1.129-.044 1.695-1.858.402-3.741.687-5.606 1.06.097-2.289.155-4.578.302-6.863zM114.535 99.126c1.061-.172 2.265-.002 3.039.81 1.006.946.974 2.551.42 3.728-.901 1.857-2.994 3.057-5.05 2.843-1.084-.103-2.077-.906-2.352-1.97-.362-1.363.124-2.857 1.075-3.867a4.782 4.782 0 0 1 2.868-1.544zm-.357 2.021c-.91.295-1.523 1.284-1.398 2.236.032.624.6 1.181 1.233 1.152.988.017 1.894-.78 2.047-1.75.084-.499.007-1.075-.391-1.42-.396-.377-1.002-.373-1.491-.218zM105.71 100.444c.965-.191 2.054-.11 2.857.514a2.83 2.83 0 0 1 1.144 2.175c.147 2.054-1.336 3.98-3.218 4.67-1.034.376-2.266.518-3.255-.062-.863-.489-1.393-1.455-1.405-2.442-.15-2.284 1.648-4.46 3.876-4.855zm-.006 2.022c-1.127.258-1.838 1.562-1.527 2.662.151.54.675.974 1.252.914 1.41.002 2.43-1.685 1.844-2.947-.27-.577-.983-.809-1.569-.63zM98.814 101.656c.74-.134 1.485-.25 2.234-.329-.062 2.478-.227 4.952-.303 7.43-.738.155-1.48.294-2.227.403.02-1 .076-1.999.123-2.997-.78.135-1.56.263-2.338.395-.052 1.005-.106 2.012-.11 3.018-.738.19-1.492.304-2.243.422.065-2.557.244-5.109.309-7.666.74-.13 1.486-.22 2.227-.35-.02.86-.086 1.716-.085 2.577.774-.12 1.546-.256 2.321-.37.055-.844.075-1.69.092-2.533zM89.334 103.272c1.127-.665 2.515-.939 3.794-.6-.01.75-.018 1.502-.09 2.252-.634-.197-1.318-.34-1.972-.154-1.184.266-2.076 1.54-1.8 2.751.113.604.682 1.038 1.28 1.08.876.065 1.7-.336 2.408-.812-.018.735.034 1.5-.124 2.218-.765.565-1.738.777-2.67.834-.96.061-1.963-.299-2.58-1.057-.682-.802-.775-1.933-.639-2.937.19-1.482 1.137-2.802 2.393-3.575zM81.378 104.491c1.358-.875 3.119-.998 4.642-.515 0 .756-.064 1.509-.07 2.266-.935-.314-1.942-.485-2.924-.318-.251.03-.45.193-.639.346.212.384.683.403 1.066.487.797.143 1.673.234 2.307.794.533.469.62 1.259.476 1.921-.211 1.123-1.14 1.973-2.154 2.404-1.316.527-2.844.651-4.171.093-.018-.826.057-1.65.046-2.474.971.586 2.157.76 3.266.562.253-.065.55-.142.69-.384.096-.226-.134-.382-.321-.423-.847-.249-1.779-.226-2.564-.67a1.73 1.73 0 0 1-.848-1.05c-.275-1.13.203-2.418 1.198-3.039zM71 105.804c1.924-.293 3.849-.581 5.775-.866a43.708 43.708 0 0 1-.1 2.164c-1.174.231-2.364.363-3.54.591-.003.242-.013.483-.025.73.925-.107 1.836-.315 2.764-.415-.015.646-.056 1.294-.058 1.944-.92.22-1.864.317-2.791.504-.029.4-.049.799-.049 1.202 1.198-.178 2.387-.411 3.58-.615-.002.73-.046 1.458-.058 2.187-1.96.311-3.897.762-5.861 1.025.124-2.817.27-5.633.363-8.451zM66.165 106.714c1.094-.658 2.456-.926 3.694-.556.01.826-.021 1.655-.092 2.48-.574-.18-1.182-.342-1.785-.225-1.491.225-2.46 2.033-1.87 3.412.249.616.959.933 1.596.84.732-.057 1.364-.457 1.972-.835-.019.793-.032 1.59-.095 2.38-.49.453-1.16.655-1.795.811-1.065.244-2.3.117-3.11-.678-.952-.847-1.16-2.219-1.039-3.428.12-1.697 1.09-3.297 2.524-4.201zM60.745 107.351a28.64 28.64 0 0 1 2.116-.312c-.119 2.919-.238 5.838-.383 8.757-.478.074-.949.18-1.425.26-.179.016-.394.11-.499-.089-.908-1.159-1.659-2.443-2.607-3.567-.107 1.417-.12 2.839-.211 4.257-.717.133-1.43.282-2.153.38.101-2.993.272-5.983.38-8.976.647-.075 1.3-.293 1.948-.227.933 1.2 1.684 2.54 2.655 3.713.065-1.4.148-2.797.18-4.196zM50.276 108.84c.668-.13 1.346-.208 2.02-.297.845 2.88 1.747 5.744 2.63 8.614-.803.178-1.613.32-2.423.45-.158-.54-.272-1.095-.484-1.616-.793.164-1.596.273-2.388.434-.222.616-.4 1.246-.644 1.854-.759.108-1.508.278-2.265.391 1.032-3.156 2.185-6.273 3.261-9.415.07-.152.086-.395.293-.415zm.684 3.238c-.173.698-.415 1.38-.554 2.087.36-.04.72-.099 1.079-.167-.091-.414-.172-.83-.257-1.242-.056-.24-.08-.504-.268-.678zM42.855 110.01c.767-.129 1.593-.14 2.306.22.936.455 1.576 1.403 1.754 2.422.261 1.53-.024 3.174-.886 4.477-.706 1.064-1.767 1.935-3.029 2.22-1.126.247-2.266.421-3.397.641.114-3.176.299-6.352.392-9.53.947-.19 1.907-.293 2.86-.45zm-.72 2.596a212.974 212.974 0 0 0-.183 4.456c.673-.065 1.396-.189 1.912-.664.675-.622.87-1.605.802-2.487-.034-.529-.277-1.097-.78-1.328-.559-.255-1.179-.079-1.751.023zM33.075 113.498c1.612-.353 3.241 1.17 3.134 2.787-.128.836-.597 1.66-1.356 2.071-.482.253-1.019.506-1.578.4-.81-.202-1.601-.665-1.998-1.425-.33-.557-.302-1.236-.232-1.854.21-.995 1.079-1.725 2.03-1.979z"/>
            </g>
        </g>
    </g>
</svg>
