<svg xmlns="http://www.w3.org/2000/svg" width="50" height="50" viewBox="0 0 50 50">
    <g fill="#000" fill-rule="nonzero">
        <path d="M0 0v50h50V0H0zm46.907 46.907H3.093V3.093h43.814v43.814z"/>
        <path d="M33.632 18.37a1.981 1.981 0 0 1-1.98-1.98c0-1.09.888-1.978 1.98-1.978a1.98 1.98 0 0 1 1.978 1.979 1.98 1.98 0 0 1-1.978 1.978zm-.588-9.602H16.956c-4.517 0-8.191 3.674-8.191 8.19v16.089c0 4.517 3.674 8.19 8.19 8.19h16.09c4.516 0 8.19-3.673 8.19-8.19V16.959c0-4.517-3.674-8.191-8.19-8.191zm4.658 24.279a4.663 4.663 0 0 1-4.658 4.658H16.956a4.663 4.663 0 0 1-4.657-4.658V16.959a4.663 4.663 0 0 1 4.657-4.658h16.088a4.663 4.663 0 0 1 4.658 4.658v16.088zM25 16.64c-4.611 0-8.363 3.752-8.363 8.362 0 4.612 3.752 8.363 8.363 8.363s8.363-3.751 8.363-8.363c0-4.61-3.752-8.362-8.363-8.362zm0 13.192a4.836 4.836 0 0 1-4.83-4.83A4.835 4.835 0 0 1 25 20.175a4.834 4.834 0 0 1 4.828 4.829A4.835 4.835 0 0 1 25 29.833z"/>
    </g>
</svg>
