<svg xmlns="http://www.w3.org/2000/svg" width="50" height="50" viewBox="0 0 50 50">
    <g fill="#000" fill-rule="nonzero">
        <path d="M14.923 28.45c1.254 1.699 2.694 3.2 4.555 4.263 2.107 1.205 4.376 1.568 6.769 1.458 1.118-.054 1.454-.346 1.506-1.46.035-.763.123-1.524.498-2.21.37-.672.93-.8 1.576-.38.322.21.593.475.85.758.63.688 1.24 1.4 1.891 2.064.82.836 1.794 1.328 3.014 1.227l4.73.002c.76-.051 1.157-.984.72-1.836-.308-.595-.712-1.124-1.139-1.638-.966-1.16-2.105-2.15-3.182-3.2-.97-.948-1.032-1.498-.253-2.592.854-1.194 1.769-2.34 2.629-3.529.802-1.11 1.625-2.218 2.045-3.545.27-.847.031-1.221-.834-1.37-.15-.025-.306-.025-.458-.025l-5.146-.007c-.634-.01-.983.267-1.206.83-.304.759-.616 1.518-.977 2.248-.817 1.662-1.73 3.269-3.01 4.627-.283.3-.597.68-1.069.523-.589-.215-.763-1.187-.753-1.516l-.004-5.94c-.115-.847-.304-1.227-1.147-1.391h-5.345c-.712 0-1.071.277-1.453.722-.217.259-.285.425.166.511.887.168 1.39.743 1.52 1.632.212 1.421.198 2.85.075 4.275-.035.417-.107.831-.271 1.22-.259.614-.677.738-1.225.36-.494-.34-.843-.82-1.186-1.303-1.282-1.812-2.304-3.765-3.14-5.817-.24-.593-.656-.952-1.284-.962a129.997 129.997 0 0 0-4.633.002c-.927.016-1.204.468-.824 1.311 1.68 3.74 3.551 7.376 5.995 10.688z"/>
        <path d="M0 0v50h50V0H0zm46.907 46.907H3.093V3.093h43.814v43.814z"/>
    </g>
</svg>
