<svg xmlns="http://www.w3.org/2000/svg" width="50" height="50" viewBox="0 0 50 50">
    <g fill="#000" fill-rule="nonzero">
        <path d="M12.839 35.868c4.026.449 8.102.452 12.16.449 4.059.003 8.134 0 12.16-.449 1.7-.19 3.112-1.465 3.51-3.192.566-2.458.568-5.144.568-7.676s.005-5.217-.561-7.675c-.398-1.729-1.81-3.002-3.511-3.192-4.027-.45-8.103-.452-12.16-.45-4.058-.002-8.135 0-12.162.45-1.698.19-3.111 1.463-3.507 3.192-.566 2.458-.573 5.143-.573 7.675s0 5.218.566 7.676c.396 1.727 1.809 3.002 3.51 3.192zm7.97-16.566c3.441 1.796 6.86 3.578 10.324 5.385L20.81 30.041V19.302z"/>
        <path d="M0 0v50h50V0H0zm46.907 46.907H3.093V3.093h43.814v43.814z"/>
    </g>
</svg>
